# xmcd CD database file
#
# Track frame offsets:
#	150
#	24657
#	38560
#	53299
#	63302
#	75508
#	102775
#	122982
#	142500
#	154478
#	174454
#	199686
#	210774
#	223336
#	241645
#	255653
#	268630
#	288856
#	297363
#	330868
#
# Disc length: 4487 seconds
#
# Revision: 1
# Processed by: cddbd v1.5.2PL0 Copyright (c) Steve Scherf et al.
# Submitted via: CDex 1.79
#
DISCID=0b118514
DTITLE=V/A - Milk Of The Tree 1/3
DYEAR=1900
DGENRE=Blues
TTITLE0=Melanie - Do You Believe
TTITLE1=Joan Baez - Blessed Are...
TTITLE2=The Pentangle - Light Flight
TTITLE3=Dana Gillespie - Foolish Seasons
TTITLE4=Judy Roderick - Someone To Talk My Troubles To
TTITLE5=John and Beverley Martyn - Auntie Aviator
TTITLE6=Serpent Power - Flying Away
TTITLE7=Joan Armatrading - It Could Have Been Better
TTITLE8=Jude - Morgantown
TTITLE9=Mandy More - If Not By Fire
TTITLE10=Laura Nyro - Upstairs By A Chinese Lamp
TTITLE11=Susan Pillsbury - I Thought I Knew The Answers
TTITLE12=Jaki Whitren - Give Her The Day
TTITLE13=Wendy and Bonnie - By The Sea
TTITLE14=Jackie DeShannon - Come And Stay With Me
TTITLE15=Marianne Faithfull - Something Better
TTITLE16=Spirogyra - An Everyday Consumption Song
TTITLE17=Polly Niles - The Milk Of The Tree
TTITLE18=Nico - Chelsea Girls
TTITLE19=Mary-Anne - Reverie For Roslyn
EXTD=
EXTT0=
EXTT1=
EXTT2=
EXTT3=
EXTT4=
EXTT5=
EXTT6=
EXTT7=
EXTT8=
EXTT9=
EXTT10=
EXTT11=
EXTT12=
EXTT13=
EXTT14=
EXTT15=
EXTT16=
EXTT17=
EXTT18=
EXTT19=
PLAYORDER=
